<svg width="329" height="123" viewBox="0 0 329 123" fill="none" xmlns="http://www.w3.org/2000/svg">
<path d="M93.4679 66.7872L93.3623 67.7816L93.4679 66.7872ZM119.968 53.7623L119.951 52.7625L119.968 53.7623ZM161.438 84.9878L160.823 85.7765L161.438 84.9878ZM185.468 72.6259L185.458 71.626L185.468 72.6259ZM24.1358 110L24.9693 110.552L24.1358 110ZM42.8458 85.9878C46.5904 85.9878 49.4646 83.2938 51.7706 79.7678C54.0984 76.2086 56.0449 71.5008 57.8515 66.8975C59.6777 62.2442 61.3572 57.7094 63.1753 54.3162C64.0826 52.6227 64.9895 51.283 65.9147 50.3771C66.8336 49.4775 67.6946 49.0765 68.5408 49.0765V47.0765C66.9938 47.0765 65.6584 47.8291 64.5155 48.948C63.3791 50.0607 62.3591 51.6047 61.4124 53.3716C59.5223 56.8993 57.7849 61.5924 55.9897 66.1668C54.1748 70.7913 52.2954 75.3114 50.0968 78.6731C47.8765 82.0679 45.524 83.9878 42.8458 83.9878V85.9878ZM68.5408 49.0765C70.5985 49.0765 72.3918 50.0056 74.1589 51.5728C75.945 53.157 77.5993 55.2955 79.4041 57.5835C82.9192 62.0398 87.0046 67.1066 93.3623 67.7816L93.5734 65.7928C88.1845 65.2206 84.5929 60.9322 80.9744 56.3449C79.2124 54.1112 77.4357 51.8058 75.4859 50.0766C73.5171 48.3304 71.2696 47.0765 68.5408 47.0765V49.0765ZM93.3623 67.7816C99.0129 68.3815 103.359 64.8388 107.333 61.5172C111.45 58.0752 115.208 54.8405 119.984 54.7622L119.951 52.7625C114.328 52.8546 110 56.6806 106.05 59.9827C101.956 63.4051 98.2527 66.2896 93.5734 65.7928L93.3623 67.7816ZM119.984 54.7622C124.471 54.6887 128.751 56.7399 133.31 58.962C137.774 61.1374 142.512 63.4809 147.602 63.4809V61.4809C143.058 61.4809 138.748 59.387 134.187 57.1641C129.721 54.9879 125.002 52.6797 119.951 52.7625L119.984 54.7622ZM147.602 63.4809C150.109 63.4809 151.529 64.348 152.484 65.6607C153.505 67.0631 154.062 69.0605 154.567 71.4716C155.057 73.8087 155.494 76.5216 156.34 79.0158C157.195 81.5399 158.504 83.9683 160.823 85.7765L162.053 84.1991C160.152 82.7169 159.018 80.6868 158.234 78.3739C157.44 76.0311 157.042 73.5285 156.525 71.0615C156.024 68.6685 155.404 66.273 154.101 64.4837C152.734 62.6046 150.685 61.4809 147.602 61.4809V63.4809ZM160.823 85.7765C161.903 86.6181 163.017 87.0715 164.164 87.1578C165.303 87.2435 166.391 86.9609 167.415 86.4703C169.418 85.5107 171.358 83.6608 173.239 81.7714C175.171 79.8311 177.085 77.8021 179.146 76.2287C181.199 74.662 183.274 73.6486 185.478 73.6259L185.458 71.626C182.635 71.6551 180.141 72.9529 177.933 74.6388C175.733 76.318 173.691 78.483 171.822 80.3602C169.902 82.2884 168.194 83.8795 166.551 84.6665C165.752 85.0493 165.016 85.2163 164.314 85.1634C163.619 85.1111 162.872 84.8375 162.053 84.1991L160.823 85.7765ZM185.478 73.6259C191.259 73.5662 195.096 71.9397 197.738 69.4159C200.348 66.9225 201.676 63.6574 202.659 60.5679C202.906 59.7918 203.133 59.0184 203.352 58.2677C203.573 57.5133 203.784 56.7848 204.003 56.0808C204.444 54.6679 204.899 53.4106 205.471 52.3567C206.039 51.3092 206.7 50.5044 207.529 49.9564C208.35 49.4143 209.407 49.0765 210.852 49.0765V47.0765C209.075 47.0765 207.622 47.4987 206.427 48.2875C205.242 49.0703 204.383 50.1672 203.713 51.4032C203.046 52.6329 202.544 54.0408 202.094 55.4859C201.868 56.2109 201.651 56.9595 201.433 57.7068C201.213 58.4578 200.992 59.2106 200.753 59.9617C199.793 62.9807 198.587 65.8386 196.356 67.9698C194.157 70.0705 190.847 71.5704 185.458 71.626L185.478 73.6259ZM210.852 49.0765C216.904 49.0765 221.492 46.9549 225.934 44.9357C230.393 42.9087 234.723 40.9741 240.5 40.9741V38.9741C234.245 38.9741 229.559 41.0907 225.106 43.115C220.636 45.1469 216.416 47.0765 210.852 47.0765V49.0765ZM240.5 40.9741C245.063 40.9741 248.652 38.2607 251.6 34.5015C254.547 30.7443 256.989 25.7718 259.241 20.907C261.516 15.9904 263.588 11.2044 265.829 7.61982C268.112 3.96845 270.311 2 272.68 2V0C269.14 0 266.419 2.90331 264.133 6.55957C261.806 10.2827 259.659 15.2401 257.426 20.067C255.168 24.9458 252.811 29.7168 250.027 33.2673C247.244 36.8157 244.17 38.9741 240.5 38.9741V40.9741ZM272.68 2C275.151 2 277.178 3.52942 279.114 6.21617C281.052 8.90748 282.723 12.5108 284.555 16.2604C286.359 19.9543 288.315 23.7721 290.79 26.6617C293.288 29.5772 296.399 31.6427 300.5 31.6427V29.6427C297.175 29.6427 294.573 28.0029 292.309 25.3605C290.023 22.6921 288.168 19.0992 286.352 15.3824C284.563 11.7213 282.801 7.91389 280.736 5.04719C278.668 2.17592 276.12 0 272.68 0V2ZM300.5 31.6427C303.125 31.6427 305.532 32.6488 307.849 34.2428C310.176 35.844 312.347 37.9913 314.502 40.1974C316.627 42.3733 318.758 44.6296 320.924 46.3006C323.092 47.9737 325.444 49.1827 328.041 49.0757L327.959 47.0774C326.056 47.1558 324.168 46.2782 322.145 44.7172C320.12 43.1542 318.109 41.0288 315.932 38.7999C313.784 36.6012 311.491 34.3206 308.983 32.5951C306.464 30.8623 303.664 29.6427 300.5 29.6427V31.6427ZM0.764936 122.34C6.50923 123.729 11.245 122.834 15.2255 120.518C19.1697 118.223 22.3061 114.57 24.9693 110.552L23.3022 109.448C20.7119 113.356 17.7801 116.717 14.2196 118.789C10.6955 120.84 6.49008 121.666 1.23506 120.396L0.764936 122.34ZM24.9693 110.552C26.7889 107.807 28.4095 104.857 29.9232 102C31.4454 99.1269 32.8481 96.3715 34.2623 93.9437C35.6782 91.5132 37.0588 89.4957 38.5006 88.0925C39.9333 86.6983 41.3447 85.9878 42.8458 85.9878V83.9878C40.6411 83.9878 38.7565 85.0527 37.1057 86.6592C35.4641 88.2569 33.9738 90.4657 32.5342 92.937C31.0929 95.4111 29.6555 98.2332 28.1559 101.063C26.6478 103.91 25.0649 106.788 23.3022 109.448L24.9693 110.552Z" fill="white"/>
</svg>
